<?xml version="1.0" encoding="utf-8"?>
<!-- Generator: Adobe Illustrator 22.0.1, SVG Export Plug-In . SVG Version: 6.00 Build 0)  -->
<svg version="1.1" id="Layer_1" xmlns="http://www.w3.org/2000/svg" xmlns:xlink="http://www.w3.org/1999/xlink" x="0px" y="0px"
	 viewBox="0 0 71.4 71.4" style="enable-background:new 0 0 71.4 71.4;" xml:space="preserve">
<style type="text/css">
	.st0{fill:#383E41;}
</style>
<g id="chat_3_">
	<path class="st0" d="M42.3,64c-0.3,0-0.6-0.1-0.9-0.4l-7.1-7.1h-22c-3.4,0-6.2-2.8-6.2-6.2V32.7c0-3.4,2.8-6.2,6.2-6.2h12.5
		c0.7,0,1.2,0.6,1.2,1.2c0,0.7-0.6,1.2-1.2,1.2H12.3c-2.1,0-3.7,1.7-3.7,3.7v17.5c0,2.1,1.7,3.7,3.7,3.7h22.5c0.3,0,0.6,0.1,0.9,0.4
		l5.4,5.4v-17c0-0.7,0.6-1.2,1.2-1.2s1.2,0.6,1.2,1.2v20c0,0.5-0.3,1-0.8,1.2C42.6,64,42.4,64,42.3,64z"/>
	<path class="st0" d="M29.8,46.5c-0.2,0-0.3,0-0.5-0.1c-0.5-0.2-0.8-0.6-0.8-1.2v-30c0-3.4,2.8-6.2,6.2-6.2h25
		c3.4,0,6.2,2.8,6.2,6.2v17.5c0,3.4-2.8,6.2-6.2,6.2h-22l-7.1,7.1C30.4,46.4,30.1,46.5,29.8,46.5z M34.8,11.5
		c-2.1,0-3.7,1.7-3.7,3.7v27l5.4-5.4c0.2-0.2,0.6-0.4,0.9-0.4h22.5c2.1,0,3.7-1.7,3.7-3.7V15.2c0-2.1-1.7-3.7-3.7-3.7H34.8z"/>
	<circle class="st0" cx="39.8" cy="22.7" r="1.2"/>
	<circle class="st0" cx="47.3" cy="22.7" r="1.2"/>
	<circle class="st0" cx="54.8" cy="22.7" r="1.2"/>
</g>
</svg>
