<?xml version="1.0" encoding="utf-8"?>
<!-- Generator: Adobe Illustrator 22.0.1, SVG Export Plug-In . SVG Version: 6.00 Build 0)  -->
<svg version="1.1" id="Layer_1" xmlns="http://www.w3.org/2000/svg" xmlns:xlink="http://www.w3.org/1999/xlink" x="0px" y="0px"
	 viewBox="0 0 71.4 71.4" style="enable-background:new 0 0 71.4 71.4;" xml:space="preserve">
<style type="text/css">
	.st0{fill:#383E41;}
</style>
<g id="email_2_">
	<path class="st0" d="M58.2,57H12.8c-3.5,0-6.3-2.8-6.3-6.3V15.4c0-0.7,0.6-1.3,1.3-1.3S9,14.7,9,15.4v35.3c0,2.1,1.7,3.8,3.8,3.8
		h45.4c2.1,0,3.8-1.7,3.8-3.8V15.4c0-0.7,0.6-1.3,1.3-1.3s1.3,0.6,1.3,1.3v35.3C64.5,54.2,61.7,57,58.2,57z"/>
	<path class="st0" d="M35.5,38.1c-1.3,0-2.6-0.4-3.7-1.2L7,16.4C6.5,16,6.4,15.5,6.6,15c0.2-0.5,0.7-0.8,1.2-0.8h55.5
		c0.5,0,1,0.3,1.2,0.8c0.2,0.5,0,1.1-0.4,1.4L39.3,36.9C38.1,37.7,36.8,38.1,35.5,38.1z M11.3,16.6L33.3,35c1.3,0.9,3.1,0.9,4.4,0
		l22-18.3H11.3z"/>
	<path class="st0" d="M63.2,16.6H7.8c-0.7,0-1.3-0.6-1.3-1.3s0.6-1.3,1.3-1.3h55.5c0.7,0,1.3,0.6,1.3,1.3S63.9,16.6,63.2,16.6z"/>
</g>
</svg>
