<?xml version="1.0" encoding="utf-8"?>
<!-- Generator: Adobe Illustrator 22.0.1, SVG Export Plug-In . SVG Version: 6.00 Build 0)  -->
<svg version="1.1" id="Layer_1" xmlns="http://www.w3.org/2000/svg" xmlns:xlink="http://www.w3.org/1999/xlink" x="0px" y="0px"
	 viewBox="0 0 71.4 71.4" style="enable-background:new 0 0 71.4 71.4;" xml:space="preserve">
<style type="text/css">
	.st0{fill:#383E41;}
</style>
<g>
	<path class="st0" d="M62.8,61.6c-0.3,0-0.5-0.1-0.7-0.3l-11.6-9.3H12.8c-3.3,0-6-2.7-6-6V22.3c0-3.3,2.7-6,6-6H58c3.3,0,6,2.7,6,6
		v38.1c0,0.5-0.3,0.9-0.7,1.1C63.2,61.6,63,61.6,62.8,61.6z M12.8,18.7c-2,0-3.6,1.6-3.6,3.6v23.8c0,2,1.6,3.6,3.6,3.6h38.1
		c0.3,0,0.5,0.1,0.7,0.3l10,8V22.3c0-2-1.6-3.6-3.6-3.6H12.8z"/>
	<path class="st0" d="M50.2,30.6H21.7c-0.7,0-1.2-0.5-1.2-1.2s0.5-1.2,1.2-1.2h28.6c0.7,0,1.2,0.5,1.2,1.2S50.9,30.6,50.2,30.6z"/>
	<path class="st0" d="M50.2,40.2H21.7c-0.7,0-1.2-0.5-1.2-1.2s0.5-1.2,1.2-1.2h28.6c0.7,0,1.2,0.5,1.2,1.2S50.9,40.2,50.2,40.2z"/>
</g>
</svg>
