<?xml version="1.0" encoding="utf-8"?>
<!-- Generator: Adobe Illustrator 22.0.1, SVG Export Plug-In . SVG Version: 6.00 Build 0)  -->
<svg version="1.1" id="Layer_1" xmlns="http://www.w3.org/2000/svg" xmlns:xlink="http://www.w3.org/1999/xlink" x="0px" y="0px"
	 viewBox="0 0 71.4 71.4" style="enable-background:new 0 0 71.4 71.4;" xml:space="preserve">
<style type="text/css">
	.st0{fill:#383E41;}
</style>
<g>
	<path class="st0" d="M58.6,64.2c-0.6,0-1.2-0.1-1.7-0.2C45.4,62.3,33.8,56.3,25,47.5c-8.7-8.7-14.4-19.7-16.6-31.9
		c-0.2-1.2-0.4-2.8,0.4-4l0,0c0.4-0.7,1-1.2,1.7-1.3c8.2-1.8,8.6-1.9,8.7-1.9c1.8-0.4,3.7,0.9,4.3,2.9c0.9,3,1.7,5.5,2.9,8.1
		c0.9,1.8,0.3,4-1.3,4.9l-2.1,1.2c-0.4,0.2-0.7,0.7-0.9,1.1c-0.4,1.6,5,8.7,9.9,13.6c4.1,4.1,11.5,10,13.3,9.6
		c0.5-0.1,0.9-0.4,1.1-0.9l1.2-2.1c1-1.6,3.1-2.1,4.9-1.3c1.7,0.8,4.5,1.9,6.7,2.8c3,1.2,3.3,1.3,3.6,1.6c0.9,0.9,1.3,2.1,1.1,3.2
		l-1.9,8.7c-0.1,0.7-0.6,1.3-1.3,1.7C60.2,64.1,59.4,64.2,58.6,64.2z M10.9,12.8c-0.3,0.4-0.3,1.2-0.1,2.4
		c2.1,11.7,7.6,22.3,15.9,30.6c8.4,8.4,19.5,14.2,30.5,15.8c0.9,0.1,1.9,0.2,2.4-0.1c0.1-0.1,0.2-0.2,0.2-0.2l1.9-8.7
		c0.1-0.3-0.1-0.7-0.4-1c-0.1,0-1.5-0.6-2.8-1.1c-2.3-0.9-5.1-2-6.8-2.9c-0.7-0.3-1.5-0.2-1.8,0.3l-1.2,2.1c-0.6,1-1.5,1.7-2.6,2
		c-4.2,1.1-15.1-9.8-15.6-10.2C30.1,41.5,18.9,30.2,20,26.1c0.3-1.1,1-2.1,2-2.6l2-1.2c0.5-0.3,0.7-1.1,0.3-1.8
		c-1.4-2.8-2.1-5.4-3-8.3c-0.3-1-1-1.5-1.6-1.4c0,0-0.6,0.1-8.7,1.9C11,12.6,11,12.7,10.9,12.8z"/>
	<path class="st0" d="M53.3,34.9c-0.7,0-1.2-0.5-1.2-1.2c0-8.8-7.1-15.9-15.9-15.9c-0.7,0-1.2-0.5-1.2-1.2c0-0.7,0.5-1.2,1.2-1.2
		c10.1,0,18.3,8.2,18.3,18.3C54.5,34.4,53.9,34.9,53.3,34.9z"/>
	<path class="st0" d="M60.5,34.9c-0.7,0-1.2-0.5-1.2-1.2c0-12.7-10.4-23.1-23.1-23.1c-0.7,0-1.2-0.5-1.2-1.2c0-0.7,0.5-1.2,1.2-1.2
		c14.1,0,25.5,11.4,25.5,25.5C61.7,34.4,61.2,34.9,60.5,34.9z"/>
</g>
</svg>
